<svg xmlns="http://www.w3.org/2000/svg" width="64" height="64" fill="none"><rect width="64" height="64" fill="#EAC645" rx="8"/><path fill="#4F2EE8" d="M54.844 17.846a22.372 22.372 0 0 0-3.208-1.407V44.2c-2.487-.946-5.04-1.43-7.636-1.43-4.145 0-8.247 1.245-12 3.645V18.492c-3.535-2.146-7.614-3.415-12-3.415-3.905 0-7.593 1.015-10.844 2.77-.72.368-1.156 1.176-1.156 2.03v27.877c0 1.338 1.025 2.285 2.182 2.285.349 0 .698-.093 1.047-.278 2.64-1.453 5.607-2.376 8.771-2.376 4.516 0 8.684 1.892 12 4.615 3.316-2.723 7.484-4.615 12-4.615 3.164 0 6.13.923 8.77 2.4.35.184.7.277 1.048.277 1.135 0 2.182-.947 2.182-2.285v-27.9c0-.854-.436-1.662-1.156-2.03ZM27.636 44.2c-2.487-.946-5.04-1.43-7.636-1.43s-5.15.484-7.636 1.43V21.33A18.513 18.513 0 0 1 20 19.693c2.618 0 5.215.577 7.636 1.662V44.2ZM47.273 7l-10.91 11.538v21.924l10.91-10.385V7Z"/></svg>